<svg id="backgroundSVG" viewBox="0 0 2400 1200" preserveAspectRatio="xMidYMid slice" xmlns="http://www.w3.org/2000/svg">
    <defs>
  <linearGradient id="grad1" x1="0%" y1="0%" x2="100%" y2="100%">
            <stop offset="0%" style="stop-color:#264485;stop-opacity:1" />
            <stop offset="100%" style="stop-color:#031d75;stop-opacity:1" />
        </linearGradient>

        <!-- Gradient for Waves -->
        <linearGradient id="waveGradient1" x1="0%" y1="0%" x2="100%" y2="100%">
            <stop offset="0%" style="stop-color:rgba(255,255,255,0.3);stop-opacity:1" />
            <stop offset="100%" style="stop-color:rgba(255,255,255,0.1);stop-opacity:1" />
        </linearGradient>
        <linearGradient id="waveGradient2" x1="0%" y1="0%" x2="100%" y2="100%">
            <stop offset="0%" style="stop-color:rgba(255,255,255,0.2);stop-opacity:1" />
            <stop offset="100%" style="stop-color:rgba(255,255,255,0.05);stop-opacity:1" />
        </linearGradient>

        <!-- Darker Gradient for Text -->
        <linearGradient id="textGradient" x1="0%" y1="0%" x2="100%" y2="100%">
            <stop offset="0%" style="stop-color:#6a1b9a;stop-opacity:1" />
            <stop offset="100%" style="stop-color:#ab47bc;stop-opacity:1" />
        </linearGradient>

        <style>
            @import url('https://fonts.googleapis.com/css2?family=Poppins:wght@100;200;300;400;500;600;700;800;900&family=Raleway:wght@100;200;300;400;500;600;700;800;900&display=swap');
            .note {
                font-family: 'Raleway', sans-serif;
                fill: url(#textGradient); /* Apply gradient to text */
            }
            .letter {
                font-family: 'Raleway', sans-serif;
                font-weight: 600;
                fill: url(#textGradient); /* Apply gradient to text */
            }
        </style>
    </defs>

    <!-- Background -->
    <rect width="100%" height="100%" fill="url(#grad1)" />
    <rect x="0" y="0" width="100%" height="100%" fill="rgba(0,0,0,0.1)" rx="10" />

    <!-- Waves -->
    <path id="wave1" d="M0,800 C200,750 400,850 600,800 C800,750 1000,850 1200,800 C1400,750 1600,850 1800,800 C2000,750 2200,850 2400,800 L2400,1200 L0,1200 Z" fill="url(#waveGradient1)" />
    <path id="wave2" d="M0,900 C100,950 300,850 500,900 C700,950 900,850 1100,900 C1300,950 1500,850 1700,900 C1900,950 2100,850 2300,900 C2500,950 2700,850 2900,900 L2900,1200 L0,1200 Z" fill="url(#waveGradient2)" />

    <!-- Boat -->
    <g id="boat" transform="translate(1100, 650)">
        <!-- Hull -->
        <path d="M0 40 Q50 80 100 40 L90 60 Q50 100 10 60 Z" fill="#8B4513" stroke="#5A2E0E" stroke-width="2" />
        <!-- Mast -->
        <rect x="45" y="-60" width="10" height="100" fill="#8B4513" />
        <!-- Sails -->
        <polygon points="50,-60 90,40 50,40" fill="#FFFFFF" stroke="#CCCCCC" stroke-width="1" />
        <polygon points="50,-60 10,40 50,40" fill="#FFFFFF" stroke="#CCCCCC" stroke-width="1" />
        
    </g>
</svg>
